Coordinates
version=1
nRows=8
nColumns=40
inDegrees=yes

Units are S.I. units (second, meters, Newtons, ...)
Angles are in degrees.

endheader
time	pelvis_tilt	pelvis_list	pelvis_rotation	pelvis_tx	pelvis_ty	pelvis_tz	hip_flexion_r	hip_adduction_r	hip_rotation_r	knee_angle_r	knee_angle_r_beta	ankle_angle_r	subtalar_angle_r	mtp_angle_r	hip_flexion_l	hip_adduction_l	hip_rotation_l	knee_angle_l	knee_angle_l_beta	ankle_angle_l	subtalar_angle_l	mtp_angle_l	lumbar_extension	lumbar_bending	lumbar_rotation	arm_flex_r	arm_add_r	arm_rot_r	elbow_flex_r	pro_sup_r	wrist_flex_r	wrist_dev_r	arm_flex_l	arm_add_l	arm_rot_l	elbow_flex_l	pro_sup_l	wrist_flex_l	wrist_dev_l
     12.78250000	      0.20339178	     -7.16166510	      0.89795911	      1.02424147	      0.91794822	      0.57113941	      9.43161856	      9.61160083	     -9.64783721	     25.45376195	     25.45376195	     17.66273823	    -10.83613664	     -0.02187285	     31.44020651	    -17.01079161	      6.40069446	     74.14943970	     74.14943970	     -3.08068249	    -19.49597889	     18.09904000	     -9.90754266	      5.70153865	      1.57479957	     29.52331155	    -17.76422647	     -5.96518717	     64.99316497	     45.20360193	      0.00000000	      0.00000000	     -5.41198197	     -8.97662593	     11.94292641	     29.47955815	     45.07377941	      0.00000000	      0.00000000
     12.80585714	      0.26845768	     -7.15598891	      1.73083338	      1.02245137	      0.91729995	      0.57165790	      9.33701625	      9.66653429	    -10.09587985	     25.66737603	     25.66737603	     18.03871585	    -11.27600364	      0.40201054	     32.71820624	    -16.83212117	      6.57935039	     74.04803424	     74.04803424	     -1.48757761	    -19.55463219	     20.61959876	    -10.00987608	      5.65988791	      1.73476859	     32.36176455	    -17.83220378	     -5.82599248	     66.41500216	     45.18199028	      0.00000000	      0.00000000	     -7.37935260	     -9.09459166	     14.50114910	     29.25765594	     44.66728144	      0.00000000	      0.00000000
     12.82921429	      0.24417808	     -7.09229490	      2.58304974	      1.02049793	      0.91702532	      0.57177421	      9.19449687	      9.62949536	    -10.63513577	     25.58286346	     25.58286346	     18.20167259	    -11.60046304	      0.51060348	     33.73190309	    -16.60757463	      6.50848897	     72.98434526	     72.98434526	      0.10684936	    -19.59761181	     21.04096978	    -10.07392332	      5.58396078	      1.79001835	     35.13803336	    -17.70710860	     -5.93678057	     67.99011694	     45.15024867	      0.00000000	      0.00000000	     -9.03858588	     -8.94987323	     15.31908006	     28.84265336	     44.52446723	      0.00000000	      0.00000000
     12.85257143	      0.11603412	     -6.91726084	      3.42774989	      1.01828673	      0.91709082	      0.57133050	      9.10074195	      9.39809199	    -11.30303287	     25.38747154	     25.38747154	     18.36139539	    -11.62820169	      0.73916003	     34.59800109	    -16.08602218	      6.38406732	     71.12629289	     71.12629289	      2.59559872	    -19.60452232	     22.84217762	    -10.08468409	      5.43982843	      1.98343611	     37.90941438	    -17.97837735	     -5.38120825	     69.06619228	     45.13526290	      0.00000000	      0.00000000	    -10.85572115	     -9.64103396	     19.01029253	     30.40004230	     43.98249066	      0.00000000	      0.00000000
     12.87592857	     -0.10403220	     -6.70697631	      4.28629235	      1.01589224	      0.91756545	      0.57045315	      8.94938491	      9.11809653	    -11.98632732	     24.87519889	     24.87519889	     18.31092908	    -11.61690085	      0.81868583	     35.17019799	    -15.45724165	      6.18102486	     68.24829931	     68.24829931	      4.53324746	    -19.59027863	     22.36808279	    -10.05644235	      5.29517092	      2.14574283	     40.46818146	    -17.93736745	     -5.54293435	     70.43290306	     45.11114126	      0.00000000	      0.00000000	    -11.90987064	     -9.56019472	     19.63524899	     30.25348399	     43.89269991	      0.00000000	      0.00000000
     12.89928571	     -0.39263705	     -6.40837030	      5.12621209	      1.01336814	      0.91839149	      0.56919842	      8.79107961	      8.70944592	    -12.71005983	     24.24980743	     24.24980743	     18.21377748	    -11.43775884	      0.85904368	     35.44523788	    -14.60654635	      5.99816120	     64.47335362	     64.47335362	      6.35663586	    -19.54095024	     21.84265530	     -9.99904347	      4.98835472	      2.37374685	     42.86640219	    -17.98909947	     -5.56337471	     71.62015015	     45.08644106	      0.00000000	      0.00000000	    -12.73857629	     -9.54215787	     20.13040008	     30.41600129	     43.81934850	      0.00000000	      0.00000000
     12.92264286	     -0.82918531	     -6.06414404	      5.96756875	      1.01063432	      0.91930141	      0.56734645	      8.64297931	      8.17088301	    -13.63738275	     23.33872546	     23.33872546	     17.79331858	    -11.01155549	     -0.02433686	     35.49712051	    -13.61570751	      5.84405481	     59.82812547	     59.82812547	      7.17459385	    -19.44945288	     19.29454282	     -9.82695087	      4.81399263	      2.65010519	     45.07697284	    -18.26620195	     -5.29290793	     72.95296480	     45.11907609	      0.00000000	      0.00000000	    -13.68343962	    -10.94627704	     26.32257486	     32.97801642	     43.30561058	      0.00000000	      0.00000000
     12.94600000	     -1.24482567	     -5.64491061	      6.72005387	      1.00793075	      0.92054659	      0.56529591	      8.42727532	      7.58518523	    -14.38660720	     22.41733995	     22.41733995	     17.59036722	    -10.61759218	      0.06676381	     35.17897133	    -12.46319863	      5.83781479	     54.60009120	     54.60009120	      8.11892481	    -19.26590300	     18.58366019	     -9.75483075	      4.43794711	      2.81672327	     47.14979951	    -18.27146556	     -5.19942767	     74.03363266	     45.09274326	      0.00000000	      0.00000000	    -14.04471985	    -10.88205586	     26.43218904	     33.20369465	     43.31006390	      0.00000000	      0.00000000
